+8_ID_stride5.mot
nRows=7
nColumns=38

name +8_ID_stride5.mot
datacolumns 38
datarows 7
range 2.8250000000 2.8550000000
endheader
time	pelvis_tilt_moment	pelvis_list_moment	pelvis_rotation_moment	pelvis_tx_force	pelvis_ty_force	pelvis_tz_force	hip_flexion_r_moment	hip_adduction_r_moment	hip_rotation_r_moment	knee_angle_r_moment	ankle_angle_r_moment	subtalar_angle_r_moment	mtp_angle_r_moment	hip_flexion_l_moment	hip_adduction_l_moment	hip_rotation_l_moment	knee_angle_l_moment	ankle_angle_l_moment	subtalar_angle_l_moment	mtp_angle_l_moment	lumbar_extension_moment	lumbar_bending_moment	lumbar_rotation_moment	arm_flex_r_moment	arm_add_r_moment	arm_rot_r_moment	elbow_flex_r_moment	pro_sup_r_moment	wrist_flex_r_moment	wrist_dev_r_moment	arm_flex_l_moment	arm_add_l_moment	arm_rot_l_moment	elbow_flex_l_moment	pro_sup_l_moment	wrist_flex_l_moment	wrist_dev_l_moment
        2.8250000000	      -13.9466526755	        3.8314172828	        4.1577351211	       58.8816031110	      -20.0253728800	      -80.2701324987	        4.0181343436	      -51.2362063732	       29.7415531944	       16.8125406443	     -202.2503735653	       48.0412746954	       -0.0249239687	       -4.4295030521	        0.0124437892	       -1.8865700562	       -2.0987433321	        2.2990575472	       -0.2229729982	        0.1305737341	       26.7308532124	       12.2610659710	      -40.6735951589	       -0.0300861773	       -3.0662367504	       -3.9996385359	        5.1173321442	       -0.2334476624	       -0.3381674460	       -0.5264748892	        7.9247108066	        6.7095027106	        4.6853373544	        5.4798976280	        0.0318600156	        0.6006090697	       -0.3540397569	
        2.8300000000	       -4.0608116833	      -13.6346846952	        3.6413790999	       82.4878321679	      -60.3720952799	      -64.1729316038	       -3.4865833815	      -53.4918220089	       27.9792772067	        6.1671680209	     -191.6304619416	       44.5424073344	       -0.0329567914	       -6.7141885193	        0.9464457090	       -2.5870867127	       -1.7645649515	        2.3834956292	       -0.2379063982	        0.1359314920	       16.3349941944	       12.0326907831	      -40.7570142046	       -0.4401790842	       -3.3990466325	       -4.1061246819	        4.3890162659	       -0.2235557141	       -0.3661930666	       -0.4630867481	        7.6494866837	        6.5272982828	        4.6416207489	        4.8176875358	        0.0452806424	        0.5840857538	       -0.2922356105	
        2.8350000000	       -0.4946538551	      -32.4363209515	        2.4427927142	       97.9837991081	      -85.5019681458	      -44.7989245845	      -11.1402284717	      -53.2530913711	       25.4146636824	       -3.4023670475	     -179.2558942886	       40.8314972004	       -0.0406631604	       -9.8005000879	        1.3930205686	       -2.6520860695	       -1.8473074717	        2.4721752212	       -0.2785116812	        0.1420567066	        6.8596804763	       12.1888267409	      -40.3665408910	       -0.7907058023	       -3.4690536262	       -4.0894171858	        3.7036573415	       -0.2106930840	       -0.3720015150	       -0.4006706756	        7.2730739489	        6.2047161812	        4.5168406666	        4.2094399244	        0.0540504063	        0.5568356970	       -0.2380741251	
        2.8400000000	       -0.6360171993	      -44.3925247136	       -0.5088171416	      103.4526097417	      -93.0256075145	      -27.5031223232	      -13.6451534363	      -48.7234223675	       21.2124561990	       -8.9727973198	     -164.7390622931	       36.8700562965	       -0.0475121247	      -13.8158651330	        1.4535090066	       -2.2072146612	       -2.5642644310	        2.5653231040	       -0.3671428566	        0.1487401551	       -0.8728651405	       13.4303006979	      -38.5989134311	       -1.1014734547	       -3.4501835697	       -3.9173098306	        3.0879591279	       -0.1953510516	       -0.3704207008	       -0.3420688405	        6.7927032955	        5.7197907150	        4.2410682031	        3.6866293927	        0.0582301027	        0.5194727999	       -0.1942307666	
        2.8450000000	       -7.3600407545	      -47.4388699569	       -4.9015188715	      103.5190400549	      -85.2685465700	      -16.6272812617	       -7.8407428145	      -39.5658889600	       15.5295345460	      -10.4417829323	     -148.6218522821	       32.8049048285	       -0.0528281217	      -18.2913135671	        1.2367632669	       -1.1507114251	       -3.7984918552	        2.6614438607	       -0.4818837318	        0.1555489282	       -6.1117833717	       15.8168459965	      -36.3228192724	       -1.4104483985	       -3.2109033932	       -3.6245797068	        2.5521494722	       -0.1787282012	       -0.3511458290	       -0.2893247613	        6.2352817061	        5.1227929683	        3.8887273186	        3.2589660831	        0.0592915679	        0.4768158665	       -0.1611367457	
        2.8500000000	      -15.0884051622	      -39.4650618026	       -9.5496550622	       96.9557869395	      -61.4893231961	      -11.6901974821	        5.3460240352	      -29.0598266444	        9.6409792119	       -8.3612207050	     -131.6958404362	       28.9122895482	       -0.0560500912	      -22.6992841232	        1.2628394560	        0.1033315079	       -5.3474958957	        2.7564351542	       -0.6002096007	        0.1621011839	       -8.6408803100	       18.7720811202	      -33.7866352168	       -1.7475771627	       -2.8382925172	       -3.2461716815	        2.0888441762	       -0.1612616506	       -0.3231181093	       -0.2426050355	        5.6207626165	        4.4251416562	        3.4789466702	        2.9141093711	        0.0573341907	        0.4312542785	       -0.1374737778	
        2.8550000000	      -18.8419119653	      -27.7604978788	      -12.5350415125	       87.7302155396	      -31.8437609510	       -8.4839572823	       19.0565367284	      -20.5702360921	        5.6654828663	       -6.8190245062	     -115.0870532145	       25.4975181499	       -0.0553181265	      -26.5694785930	        2.0326270217	        1.2379574031	       -7.0422082925	        2.8400898553	       -0.6981280456	        0.1678215263	       -8.1048106615	       21.5681605125	      -31.2705448250	       -2.1253161079	       -2.3493824055	       -2.8090611999	        1.6713787682	       -0.1429929313	       -0.2893019505	       -0.2001879117	        4.9737343171	        3.6354156354	        3.0310091599	        2.6141734150	        0.0539090728	        0.3842899954	       -0.1198775604	
